<svg width="34" height="29" viewBox="0 0 34 29" fill="none" xmlns="http://www.w3.org/2000/svg">
<path d="M34 19.5259C33.9031 19.9264 33.8329 20.3336 33.706 20.7224C33.3425 21.8297 32.6389 22.7932 31.6959 23.4748C30.7528 24.1563 29.6189 24.5209 28.4566 24.5162C25.9221 24.5447 23.3893 24.5263 20.8549 24.5162C20.7029 24.5244 20.5508 24.5009 20.4084 24.4471C20.2659 24.3934 20.1361 24.3106 20.0271 24.204C19.9182 24.0974 19.8324 23.9693 19.7753 23.8277C19.7182 23.6862 19.691 23.5344 19.6954 23.3817C19.6954 22.7517 20.1866 22.2976 20.8649 22.2976C23.3342 22.2976 25.803 22.2976 28.2711 22.2976C29.5994 22.2976 30.6385 21.7764 31.3336 20.6218C31.6325 20.1263 31.7881 19.5571 31.783 18.978C31.783 14.5138 31.7947 10.0497 31.783 5.58561C31.7841 4.71651 31.4454 3.88162 30.8398 3.26007C30.2342 2.63852 29.4098 2.27983 28.5435 2.26098H28.2828H6.45671C4.84614 2.26098 3.57974 3.12398 3.12865 4.56677C3.01285 4.96111 2.95654 5.37061 2.96158 5.78167C2.94933 10.105 2.94933 14.4278 2.96158 18.7501C2.96158 20.8849 4.36665 22.2959 6.50516 22.2992C10.056 22.2992 13.6073 22.2992 17.1593 22.2992C17.3427 22.2926 17.5262 22.3089 17.7056 22.3478C17.9371 22.4139 18.14 22.5556 18.2819 22.7505C18.4239 22.9454 18.4968 23.1824 18.4892 23.4236C18.4892 24.4006 18.4892 25.3792 18.4892 26.3561V26.7416C19.2259 26.7416 19.9276 26.7315 20.6277 26.7416C20.7989 26.7435 20.9672 26.7856 21.1193 26.8646C21.2713 26.9436 21.4028 27.0572 21.5032 27.1963C21.6036 27.3354 21.6701 27.4962 21.6973 27.6658C21.7246 27.8353 21.7118 28.0089 21.6602 28.1726C21.596 28.3938 21.4632 28.5887 21.2812 28.7291C21.0992 28.8695 20.8773 28.9481 20.6477 28.9535C18.4713 28.9636 16.2949 28.9636 14.1186 28.9535C13.8326 28.9383 13.5637 28.8123 13.3686 28.602C13.1734 28.3917 13.0674 28.1137 13.0728 27.8265C13.0783 27.5393 13.1947 27.2654 13.3976 27.0627C13.6005 26.86 13.874 26.7442 14.1603 26.7399C14.8503 26.7399 15.5403 26.7399 16.2504 26.7399V24.5229H15.8444C12.7035 24.5229 9.56422 24.5313 6.42329 24.5229C4.38001 24.5229 2.76444 23.6683 1.63003 21.954C1.03281 21.0395 0.724777 19.9654 0.746227 18.8724C0.746227 14.5155 0.746227 10.1586 0.746227 5.80178C0.746227 2.45034 3.15205 0.0389744 6.50516 0.0389744H28.2561C28.5481 0.0386904 28.8399 0.0560371 29.1299 0.0909213C30.3378 0.236598 31.4639 0.778058 32.3336 1.63128C33.2033 2.4845 33.7679 3.60178 33.9399 4.80975C33.9544 4.87125 33.9745 4.93127 34 4.98905V19.5259Z" fill="#1CA2D7"/>
<path d="M18.4641 12.2767C18.4641 10.9295 18.4641 9.58275 18.4641 8.23659C18.4641 7.41884 18.8884 6.99823 19.7088 6.99656C20.6727 6.99656 21.6351 6.99656 22.5991 6.99656C24.5922 7.00829 26.004 8.43097 26.0123 10.4351C26.0123 11.664 26.0123 12.8929 26.0123 14.1217C26.0123 16.1326 24.5722 17.5653 22.5673 17.5703C21.605 17.5703 20.6416 17.5703 19.677 17.5703C18.9152 17.5703 18.4657 17.1196 18.4641 16.3555C18.4607 14.9914 18.4641 13.6341 18.4641 12.2767ZM20.6995 15.3333C21.4296 15.3333 22.1329 15.3685 22.8313 15.3232C23.0953 15.3036 23.3419 15.1839 23.521 14.9884C23.7001 14.7929 23.7982 14.5363 23.7953 14.2709C23.8076 12.947 23.8076 11.6227 23.7953 10.2977C23.7953 9.795 23.4511 9.31407 22.96 9.27218C22.2148 9.21018 21.4563 9.2571 20.6961 9.2571L20.6995 15.3333Z" fill="#1CA2D7"/>
<path d="M14.0451 15.6734H11.7212C11.7212 15.955 11.7212 16.2231 11.7212 16.4895C11.7212 17.1598 11.2667 17.6458 10.6302 17.6525C9.99364 17.6592 9.50913 17.1732 9.50746 16.4795C9.50746 14.4485 9.50746 12.4192 9.50746 10.3899C9.5031 9.56008 9.80339 8.75769 10.3511 8.13572C10.8988 7.51375 11.6555 7.11572 12.477 7.01754C13.2986 6.91936 14.1274 7.12789 14.8055 7.60336C15.4835 8.07884 15.9634 8.78799 16.1535 9.5956C16.2207 9.89134 16.2537 10.1938 16.2521 10.4971C16.2605 12.4829 16.2521 14.4703 16.2521 16.456C16.2521 17.1514 15.7977 17.6407 15.1494 17.6458C14.5012 17.6508 14.0351 17.1598 14.0384 16.4409L14.0451 15.6734ZM14.0451 13.4531C14.0451 12.4309 14.0451 11.4422 14.0451 10.4586C14.0451 9.70285 13.5857 9.22359 12.8756 9.22359C12.1656 9.22359 11.7178 9.72631 11.7145 10.467C11.7145 11.3685 11.7145 12.2701 11.7145 13.1716C11.7145 13.2638 11.7278 13.3576 11.7345 13.4531H14.0451Z" fill="#1CA2D7"/>
</svg>
