<svg width="16" height="15" viewBox="0 0 16 15" fill="none" xmlns="http://www.w3.org/2000/svg">
<path d="M15.9475 9.91019C15.901 10.1023 15.8674 10.2975 15.8065 10.484C15.6322 11.015 15.2948 11.477 14.8425 11.8039C14.3903 12.1307 13.8465 12.3055 13.2891 12.3033C12.0737 12.317 10.8591 12.3081 9.64369 12.3033C9.5708 12.3072 9.49789 12.2959 9.42957 12.2702C9.36125 12.2444 9.299 12.2047 9.24674 12.1536C9.19449 12.1024 9.15338 12.041 9.126 11.9731C9.09862 11.9053 9.08556 11.8325 9.08766 11.7593C9.08766 11.4571 9.32321 11.2393 9.6485 11.2393C10.8327 11.2393 12.0166 11.2393 13.2002 11.2393C13.8371 11.2393 14.3355 10.9894 14.6688 10.4357C14.8121 10.1981 14.8868 9.92516 14.8843 9.64742C14.8843 7.50663 14.8899 5.36584 14.8843 3.22505C14.8848 2.80828 14.7224 2.4079 14.432 2.10983C14.1416 1.81176 13.7462 1.63976 13.3308 1.63071H13.2058H2.73899C1.96664 1.63071 1.35933 2.04457 1.14301 2.73647C1.08747 2.92557 1.06047 3.12195 1.06289 3.31908C1.05701 5.39236 1.05701 7.46538 1.06289 9.53813C1.06289 10.5619 1.73669 11.2385 2.76222 11.2401C4.46503 11.2401 6.1681 11.2401 7.87145 11.2401C7.9594 11.2369 8.04742 11.2448 8.13344 11.2634C8.24446 11.2951 8.34174 11.3631 8.40982 11.4566C8.47791 11.55 8.51288 11.6637 8.5092 11.7794C8.5092 12.2479 8.5092 12.7172 8.5092 13.1857V13.3705C8.86253 13.3705 9.19903 13.3657 9.53473 13.3705C9.61683 13.3714 9.69758 13.3916 9.77049 13.4295C9.8434 13.4674 9.90646 13.5218 9.9546 13.5886C10.0027 13.6553 10.0346 13.7324 10.0477 13.8137C10.0608 13.895 10.0547 13.9782 10.0299 14.0568C9.99909 14.1628 9.93544 14.2563 9.84814 14.3236C9.76084 14.3909 9.65444 14.4286 9.54434 14.4312C8.50065 14.4361 7.45696 14.4361 6.41327 14.4312C6.27612 14.4239 6.14716 14.3635 6.05359 14.2627C5.96003 14.1618 5.90918 14.0285 5.91178 13.8908C5.91438 13.753 5.97022 13.6217 6.06752 13.5245C6.16482 13.4273 6.29597 13.3718 6.4333 13.3697C6.76419 13.3697 7.09509 13.3697 7.4356 13.3697V12.3065H7.24091C5.73466 12.3065 4.22921 12.3105 2.72296 12.3065C1.7431 12.3065 0.968345 11.8967 0.424333 11.0746C0.137937 10.636 -0.00978326 10.121 0.000502887 9.59679C0.000502887 7.50743 0.000502887 5.41807 0.000502887 3.32872C0.000502887 1.72152 1.15422 0.565141 2.76222 0.565141H13.193C13.333 0.565005 13.473 0.573324 13.612 0.590053C14.1912 0.659913 14.7313 0.919572 15.1484 1.32874C15.5654 1.73791 15.8362 2.2737 15.9187 2.85299C15.9256 2.88248 15.9353 2.91126 15.9475 2.93897V9.91019Z" fill="white"/>
<path d="M8.49717 6.43381C8.49717 5.78772 8.49717 5.14189 8.49717 4.49633C8.49717 4.10418 8.70068 3.90248 9.09406 3.90167C9.55635 3.90167 10.0178 3.90167 10.4801 3.90167C11.436 3.9073 12.113 4.58955 12.117 5.55066C12.117 6.13996 12.117 6.72927 12.117 7.31857C12.117 8.28289 11.4263 8.96997 10.4649 8.97238C10.0034 8.97238 9.5414 8.97238 9.07884 8.97238C8.7135 8.97238 8.49797 8.75621 8.49717 8.38977C8.49557 7.73564 8.49717 7.08473 8.49717 6.43381ZM9.56917 7.89958C9.91929 7.89958 10.2566 7.91645 10.5915 7.89475C10.7181 7.88536 10.8364 7.82795 10.9222 7.7342C11.0081 7.64045 11.0552 7.5174 11.0538 7.39009C11.0597 6.75525 11.0597 6.12014 11.0538 5.48476C11.0538 5.24368 10.8887 5.01305 10.6532 4.99296C10.2959 4.96323 9.93211 4.98573 9.56757 4.98573L9.56917 7.89958Z" fill="white"/>
<path d="M6.37803 8.06272H5.26357C5.26357 8.19772 5.26357 8.3263 5.26357 8.45407C5.26357 8.77551 5.04565 9.00855 4.74039 9.01177C4.43514 9.01498 4.20279 8.78194 4.20199 8.44925C4.20199 7.47529 4.20199 6.50213 4.20199 5.52897C4.19989 5.13103 4.3439 4.74624 4.60654 4.44797C4.86919 4.1497 5.2321 3.95883 5.62607 3.91174C6.02003 3.86466 6.4175 3.96466 6.74267 4.19268C7.06783 4.42069 7.29795 4.76077 7.38914 5.14806C7.42134 5.28989 7.4372 5.43495 7.43641 5.5804C7.44042 6.53266 7.43641 7.48573 7.43641 8.438C7.43641 8.77149 7.21849 9.00614 6.90762 9.00855C6.59676 9.01096 6.37323 8.77551 6.37483 8.43076L6.37803 8.06272ZM6.37803 6.99795C6.37803 6.50775 6.37803 6.03363 6.37803 5.56192C6.37803 5.1995 6.15771 4.96966 5.8172 4.96966C5.47669 4.96966 5.26197 5.21075 5.26037 5.56594C5.26037 5.99827 5.26037 6.43061 5.26037 6.86295C5.26037 6.90714 5.26678 6.95214 5.26998 6.99795H6.37803Z" fill="white"/>
</svg>
