<svg width="18" height="15" viewBox="0 0 18 15" fill="none" xmlns="http://www.w3.org/2000/svg">
<path d="M7.34686 5.4014C7.34686 5.91322 7.34686 6.42418 7.34686 6.95424H6.1477C6.1477 6.90471 6.13727 6.85605 6.13727 6.80826C6.13727 6.34076 6.13727 5.87325 6.13727 5.40575C6.13727 5.01819 6.38058 4.76099 6.74554 4.76099C7.1105 4.76099 7.34513 5.0095 7.34686 5.4014Z" fill="white"/>
<path d="M17.6944 2.47393C17.605 1.84753 17.3113 1.26815 16.859 0.825705C16.4066 0.383258 15.8209 0.102487 15.1927 0.0269446C15.0419 0.00885511 14.8901 -0.000145505 14.7382 1.7785e-06H3.41914C2.53541 1.7785e-06 1.77854 0.321512 1.24674 0.863743H1.22762V0.883728C0.721017 1.41119 0.423833 2.14113 0.423833 2.98837C0.423833 5.24766 0.423833 7.50696 0.423833 9.76626C0.412595 10.3327 0.572501 10.8893 0.882647 11.3634C1.47267 12.2523 2.31296 12.692 3.37569 12.6955C5.00934 12.7007 6.64212 12.6955 8.27576 12.6955H8.48692V13.8478C8.11761 13.8478 7.75873 13.8478 7.39985 13.8478C7.2489 13.847 7.10367 13.9055 6.99531 14.0106C6.88696 14.1157 6.82412 14.2591 6.82025 14.41C6.81767 14.5613 6.87474 14.7076 6.97913 14.8172C7.08352 14.9268 7.22684 14.9909 7.37813 14.9957C8.50951 15.0014 9.64148 15.0014 10.774 14.9957C10.8934 14.9928 11.0088 14.9521 11.1035 14.8793C11.1982 14.8065 11.2672 14.7054 11.3006 14.5907C11.3275 14.5058 11.3341 14.4158 11.3199 14.3279C11.3058 14.24 11.2712 14.1566 11.219 14.0844C11.1668 14.0123 11.0984 13.9534 11.0193 13.9124C10.9402 13.8715 10.8526 13.8496 10.7636 13.8486C10.3995 13.8417 10.0345 13.8486 9.65132 13.8486V13.6488C9.65132 13.3264 9.65132 13.0049 9.65132 12.6825H10.754C10.7984 12.6913 10.8435 12.6957 10.8887 12.6955C12.2069 12.6955 13.5243 12.7077 14.8425 12.6955C15.447 12.6979 16.0368 12.5089 16.5273 12.1555C17.0178 11.802 17.3837 11.3024 17.5728 10.7282C17.6397 10.5266 17.6753 10.3154 17.7257 10.1078V2.57126C17.7122 2.5399 17.7017 2.5073 17.6944 2.47393ZM8.49822 8.51494C8.49822 8.87556 8.26186 9.12931 7.9247 9.13191C7.58754 9.13452 7.34511 8.8799 7.34684 8.50712V8.10567H6.13812C6.13812 8.25165 6.13812 8.39067 6.13812 8.52884C6.13812 8.87642 5.90176 9.12844 5.57069 9.13191C5.23961 9.13539 4.98761 8.88339 4.98674 8.52364C4.98674 7.47046 4.98674 6.41814 4.98674 5.36583C4.98044 4.93354 5.13598 4.51452 5.42281 4.19104C5.70963 3.86755 6.10704 3.66298 6.53697 3.61749C6.96342 3.56727 7.39343 3.67573 7.74504 3.9222C8.09665 4.16868 8.34526 4.53593 8.44347 4.95395C8.47839 5.1073 8.49559 5.26418 8.49474 5.42146C8.49995 6.45465 8.49822 7.48523 8.49822 8.51494ZM13.5712 7.2984C13.5669 8.34115 12.8222 9.08412 11.7794 9.08673C11.2789 9.08673 10.7778 9.08673 10.2761 9.08673C9.87986 9.08673 9.64611 8.85298 9.64524 8.45673C9.64524 7.752 9.64524 7.04814 9.64524 6.34428C9.64524 5.64042 9.64524 4.94698 9.64524 4.24921C9.64524 3.82516 9.86596 3.60706 10.2926 3.60619C10.794 3.60619 11.2945 3.60619 11.7959 3.60619C12.8326 3.61227 13.5669 4.35002 13.5712 5.3893C13.5729 6.02537 13.5729 6.66174 13.5712 7.2984ZM11.988 4.78624C11.6004 4.75409 11.2059 4.77841 10.8105 4.77841V7.92927C11.1903 7.92927 11.5561 7.94751 11.9193 7.92405C12.0566 7.91389 12.1849 7.85182 12.278 7.75044C12.3712 7.64907 12.4222 7.516 12.4207 7.37834C12.4265 6.69186 12.4265 6.00509 12.4207 5.31803C12.4164 5.05648 12.2391 4.80797 11.988 4.78624Z" fill="white"/>
</svg>
