<svg width="8" height="8" viewBox="0 0 8 8" fill="none" xmlns="http://www.w3.org/2000/svg">
<path fill-rule="evenodd" clip-rule="evenodd" d="M0 4C0 1.79086 1.79086 0 4 0C6.20914 0 8 1.79086 8 4C8 6.20914 6.20914 8 4 8C1.79086 8 0 6.20914 0 4ZM2.45722 2.20009C2.59923 2.05808 2.82947 2.05808 2.97148 2.20009L4 3.22861L5.02852 2.20009C5.17053 2.05808 5.40077 2.05808 5.54278 2.20009L5.79991 2.45722C5.94192 2.59923 5.94192 2.82947 5.79991 2.97148L4.77139 4L5.79991 5.02852C5.94192 5.17053 5.94192 5.40077 5.79991 5.54278L5.54278 5.79991C5.40077 5.94192 5.17053 5.94192 5.02852 5.79991L4 4.77139L2.97148 5.79991C2.82947 5.94192 2.59923 5.94192 2.45722 5.79991L2.20009 5.54278C2.05808 5.40077 2.05808 5.17053 2.20009 5.02852L3.22861 4L2.20009 2.97148C2.05808 2.82947 2.05808 2.59923 2.20009 2.45722L2.45722 2.20009Z" fill="#979797"/>
</svg>
