<svg width="17" height="17" viewBox="0 0 17 17" fill="none" xmlns="http://www.w3.org/2000/svg">
<path d="M16.9997 8.61383C17.0054 8.25427 16.9384 7.89733 16.8028 7.56498C16.6671 7.23264 16.4657 6.93192 16.2109 6.68137C15.3369 5.799 14.4684 4.91966 13.6052 4.04337L10.4052 0.814689C10.1604 0.557072 9.86678 0.352135 9.54188 0.212146C9.21698 0.0721567 8.86752 0 8.51442 0C8.16132 0 7.81185 0.0721567 7.48695 0.212146C7.16206 0.352135 6.86841 0.557072 6.62361 0.814689C5.60257 1.84108 4.56713 2.88753 3.5623 3.89752L0.789112 6.69412C0.534099 6.94489 0.332538 7.2459 0.196882 7.57858C0.0612264 7.91126 -0.00564719 8.26856 0.000373215 8.62842C0.000373215 9.6384 0.000373215 10.649 0.000373215 11.6602C0.000373215 12.7358 0.000373215 13.8108 0.000373215 14.8852C0.000373215 16.1267 0.862944 16.9964 2.09467 17C3.0905 17 4.16915 17 5.39548 17C6.65602 17 7.49339 16.1432 7.49879 14.8761C7.49879 14.5516 7.49879 14.2271 7.49879 13.9026C7.49879 13.6753 7.49879 13.4474 7.49879 13.2189V13.1642H9.49945V13.6054C9.49945 14.043 9.49945 14.4732 9.49945 14.9016C9.49945 16.1304 10.353 16.9909 11.5667 16.9982H13.2721C13.8357 16.9982 14.3849 16.9982 14.9288 16.9982C16.1425 16.9982 16.9907 16.1267 16.9925 14.8962V12.5079C16.9979 11.2318 16.9961 9.91551 16.9997 8.61383ZM15.7841 10.8271V12.621C15.7841 13.3818 15.7841 14.1426 15.7841 14.9035C15.7841 15.4504 15.4726 15.7731 14.9288 15.7731C13.7889 15.7731 12.658 15.7731 11.5685 15.7731C11.0283 15.7731 10.7186 15.4613 10.7168 14.9199V13.0968C10.7168 12.3676 10.2828 11.93 9.56247 11.93H7.41775C6.72986 11.93 6.29947 12.3639 6.29587 13.0603C6.29587 13.414 6.29587 13.775 6.29587 14.1232V14.8524C6.29587 15.4559 5.98973 15.764 5.39548 15.764C4.30301 15.764 3.20995 15.764 2.11628 15.764C1.52923 15.764 1.21589 15.454 1.21589 14.8688V12.5845C1.21589 11.2901 1.21589 9.95015 1.21589 8.63389C1.21045 8.43022 1.24722 8.22766 1.32383 8.03926C1.40044 7.85086 1.51519 7.6808 1.66068 7.54004C2.85999 6.33316 4.07912 5.10258 5.26222 3.91393C5.99694 3.17254 6.73165 2.43116 7.46637 1.68977C8.08943 1.06081 8.9232 1.05534 9.54266 1.67883C10.9113 3.05161 12.296 4.45174 13.6376 5.80629L15.3862 7.57285C15.519 7.70227 15.6238 7.85825 15.6938 8.03087C15.7639 8.20349 15.7977 8.38898 15.7931 8.57555C15.7841 9.32483 15.7841 10.0851 15.7841 10.8271Z" fill="white"/>
</svg>
