<svg width="17" height="16" viewBox="0 0 17 16" fill="none" xmlns="http://www.w3.org/2000/svg">
<g clip-path="url(#clip0_485_870)">
<path d="M0.00232289 11.2825C0.00232289 10.239 0.00733265 9.19548 0.00232289 8.15142C-0.00442912 7.85747 0.0507284 7.56537 0.164239 7.29392C0.27775 7.02248 0.4471 6.7777 0.661387 6.57536C2.63486 4.61988 4.60463 2.66182 6.57068 0.701161C7.51029 -0.232615 8.74547 -0.230398 9.68786 0.706703C11.6547 2.66034 13.62 4.61379 15.5838 6.56705C15.8022 6.77489 15.9745 7.02596 16.0895 7.30408C16.2045 7.5822 16.2598 7.88123 16.2518 8.1819C16.244 10.2695 16.2518 12.3565 16.249 14.444C16.249 15.4183 15.6612 16.0007 14.6776 16.0007C13.5393 16.0007 12.4004 16.004 11.262 16.0007C10.5334 15.9979 9.97342 15.5679 9.81868 14.8923C9.79237 14.7569 9.7808 14.6191 9.78417 14.4812C9.78083 13.8865 9.78417 13.2925 9.78417 12.6978C9.78417 12.2684 9.62162 12.1043 9.19746 12.1038C8.47532 12.1038 7.75336 12.1038 7.03158 12.1038C6.64805 12.1038 6.47494 12.2772 6.47494 12.6635C6.47494 13.2731 6.47494 13.8827 6.47494 14.4878C6.47104 15.4127 5.87878 15.9985 4.9464 15.9996C3.81457 15.9996 2.68273 15.9996 1.5509 15.9996C0.599598 15.9996 0.00789079 15.4066 0.00733415 14.4562C0.00362321 13.3981 0.0019518 12.3402 0.00232289 11.2825Z" fill="white"/>
</g>
<defs>
<clipPath id="clip0_485_870">
<rect width="16.25" height="16" fill="white"/>
</clipPath>
</defs>
</svg>
