<svg width="19" height="15" viewBox="0 0 19 15" fill="none" xmlns="http://www.w3.org/2000/svg">
<path fill-rule="evenodd" clip-rule="evenodd" d="M8.63964 0.0363538C6.81626 0.204914 5.02651 0.934005 3.549 2.11006C3.11262 2.45743 2.26021 3.34581 1.90818 3.82017C0.904949 5.17206 0.286901 6.69458 0.0502416 8.39714C-0.0241859 8.93261 -0.0139303 10.409 0.0678173 10.9314C0.160081 11.5209 0.295224 12.1027 0.450284 12.5783C0.726182 13.4244 1.18133 14.3823 1.39283 14.5619C1.55198 14.6972 1.75925 14.7227 1.96206 14.6322C2.20054 14.5256 3.55197 13.73 3.65471 13.6357C4.03261 13.2885 3.79989 12.674 3.29057 12.674C3.1403 12.674 3.04157 12.7182 2.54362 13.0086L1.96979 13.3433L1.8323 13.0555C1.5266 12.4158 1.20823 11.2144 1.14897 10.477L1.12351 10.1604L1.80674 10.1603C2.42296 10.1601 2.50189 10.1528 2.61109 10.0856C2.98238 9.85701 2.96592 9.31832 2.58155 9.11933C2.43103 9.04141 2.36923 9.03492 1.77612 9.03492H1.13373V8.90335C1.13373 8.50268 1.33955 7.50775 1.5528 6.87774C1.68278 6.49368 1.90019 5.96388 1.95013 5.90941C1.96548 5.89267 2.2293 6.02484 2.53633 6.20316C2.87841 6.40177 3.15026 6.53454 3.23821 6.54594C3.42861 6.57067 3.68251 6.4355 3.7796 6.25778C3.86845 6.09515 3.85228 5.81021 3.74597 5.66506C3.70551 5.60984 3.42757 5.42004 3.1283 5.24327C2.82899 5.06653 2.57338 4.91102 2.56019 4.89774C2.4913 4.82815 3.33081 3.8199 3.86194 3.33429C4.14015 3.07993 4.77023 2.58213 4.81397 2.58213C4.82508 2.58213 4.97022 2.82272 5.1365 3.11674C5.50388 3.76633 5.59287 3.86151 5.85692 3.88713C6.2062 3.92101 6.46263 3.68657 6.46066 3.33512C6.45981 3.18877 6.41247 3.08125 6.13765 2.60183C5.96055 2.2928 5.81564 2.02925 5.81564 2.01616C5.81564 1.9842 6.32403 1.75261 6.67027 1.62682C7.26342 1.41132 8.45233 1.15651 8.86448 1.15651C8.93356 1.15651 8.93691 1.18739 8.93698 1.82243C8.93702 2.57181 8.96451 2.68035 9.19322 2.83461C9.45782 3.01308 9.84245 2.90852 9.98654 2.6189C10.0411 2.50927 10.0515 2.38153 10.0516 1.82243C10.0516 1.18739 10.055 1.15651 10.1241 1.15651C10.3456 1.15651 11.1151 1.28617 11.5446 1.39583C12.1854 1.55951 13.1729 1.93419 13.1729 2.01368C13.1729 2.02817 13.028 2.2928 12.8509 2.60183C12.5761 3.08125 12.5287 3.18877 12.5279 3.33512C12.5259 3.68657 12.7823 3.92101 13.1316 3.88713C13.3928 3.86177 13.4859 3.76475 13.8262 3.16363C13.9779 2.89539 14.1173 2.65206 14.1358 2.62287C14.2064 2.51175 15.1364 3.2847 15.7279 3.94596C16.0878 4.34836 16.4636 4.86214 16.4259 4.90022C16.4114 4.91489 16.1558 5.07039 15.8579 5.24578C15.56 5.42117 15.2831 5.60984 15.2427 5.66506C15.137 5.8092 15.1202 6.09459 15.2078 6.25872C15.3021 6.43542 15.5565 6.56988 15.7503 6.54542C15.8392 6.53424 16.1067 6.40376 16.4522 6.20316C16.7593 6.02484 17.0231 5.89267 17.0384 5.90941C17.0884 5.96388 17.3058 6.49368 17.4358 6.87774C17.649 7.50775 17.8548 8.50268 17.8548 8.90335V9.03492H17.2124C16.6193 9.03492 16.5575 9.04141 16.407 9.11933C16.0226 9.31832 16.0062 9.85701 16.3775 10.0856C16.4866 10.1528 16.5655 10.1601 17.1767 10.1603L17.8548 10.1604V10.2963C17.8548 10.933 17.4535 12.4828 17.1163 13.1479L17.0188 13.3404L16.4461 13.0072C15.9527 12.7201 15.8498 12.674 15.703 12.6741C15.1848 12.6746 14.9502 13.2852 15.3338 13.6351C15.4359 13.7282 16.796 14.5288 17.0305 14.6338C17.2291 14.7227 17.4377 14.6962 17.5957 14.5619C17.8065 14.3829 18.2583 13.4331 18.537 12.5831C18.8168 11.73 18.9608 10.8845 18.9943 9.89779C19.0707 7.64626 18.3767 5.5126 16.9687 3.6701C16.6742 3.2847 15.8236 2.41732 15.4396 2.11074C14.7036 1.52316 13.6868 0.935918 12.8549 0.617855C11.5538 0.120428 10.0196 -0.0912388 8.63964 0.0363538ZM5.4448 5.27399C5.18254 5.40699 5.06478 5.76895 5.20011 6.02612C5.22943 6.08183 5.85539 6.73405 6.5912 7.47545C7.79281 8.68628 7.92491 8.83124 7.88879 8.89934C7.74655 9.16773 7.70902 9.69401 7.80552 10.0681C7.95196 10.636 8.43535 11.1313 9.0087 11.3012C9.29477 11.3859 9.72871 11.3781 10.0346 11.2827L10.2854 11.2045L10.6237 11.5412C10.8098 11.7264 10.9985 11.8966 11.0432 11.9195C11.0878 11.9424 11.2078 11.9612 11.3097 11.9612C11.4555 11.9612 11.5198 11.9402 11.6108 11.8629C11.8203 11.685 11.8892 11.4342 11.7965 11.1878C11.7751 11.1312 11.6045 10.9271 11.4172 10.7343L11.0767 10.3837L11.1436 10.2064C11.2441 9.94045 11.2647 9.43781 11.1864 9.16578C11.088 8.82378 10.954 8.58938 10.7255 8.35899C10.2527 7.8825 9.50817 7.71007 8.91156 7.93896L8.72195 8.0117L7.44531 6.71848C6.74314 6.00717 6.09428 5.37641 6.00343 5.31676C5.8114 5.19063 5.63561 5.1772 5.4448 5.27399ZM9.68571 8.99834C9.85753 9.04655 10.0766 9.28729 10.1094 9.46411C10.1629 9.75186 10.0344 10.0353 9.79447 10.1589C9.16294 10.4842 8.56295 9.71167 9.0363 9.18266C9.21685 8.9809 9.41892 8.92353 9.68571 8.99834ZM7.42238 13.9494C7.05233 14.1772 7.06816 14.7102 7.45107 14.9147L7.61092 15H9.49223C11.3702 15 11.3739 14.9999 11.5366 14.9156C11.921 14.7166 11.9374 14.1779 11.5662 13.9494C11.4494 13.8774 11.3754 13.8748 9.49428 13.8748C7.61312 13.8748 7.53917 13.8774 7.42238 13.9494Z" fill="#979797"/>
</svg>
