<svg width="12" height="14" viewBox="0 0 12 14" fill="none" xmlns="http://www.w3.org/2000/svg">
<path fill-rule="evenodd" clip-rule="evenodd" d="M1.89474 0C0.8483 0 0 0.85473 0 1.90909V12.0909C0 13.1453 0.848303 14 1.89474 14H10.1053C11.1517 14 12 13.1453 12 12.0909V5.72727C12 5.5585 11.9335 5.39664 11.815 5.2773L6.76238 0.186405C6.70194 0.125507 6.63051 0.0782072 6.55279 0.0465037C6.4782 0.0160786 6.39782 0 6.31579 0H1.89474ZM5.68421 1.27273H1.89474C1.54593 1.27273 1.26316 1.55764 1.26316 1.90909V12.0909C1.26316 12.4424 1.54593 12.7273 1.89474 12.7273H10.1053C10.4541 12.7273 10.7368 12.4424 10.7368 12.0909V6.36366H6.31579C5.96698 6.36366 5.68421 6.07875 5.68421 5.72729V1.27273ZM9.84365 5.09093L6.94737 2.1727V5.09093H9.84365Z" fill="white"/>
</svg>
