<svg width="12" height="18" viewBox="0 0 12 18" fill="none" xmlns="http://www.w3.org/2000/svg">
<path fill-rule="evenodd" clip-rule="evenodd" d="M7.50669 3.77346C7.99904 2.05765 8.40199 0.590497 8.40219 0.513163C8.40315 0.11321 7.85843 -0.140267 7.47922 0.0836827C7.37568 0.144846 6.6614 1.11622 4.4744 4.17004C0.0855585 10.2984 -0.0186602 10.4318 0.0016009 10.5393C0.00373979 10.5507 0.00726593 10.5618 0.00728502 10.5796C0.00744494 10.7746 0.112711 10.9426 0.296617 11.0412C0.422912 11.1089 0.502792 11.1111 2.91164 11.1112L5.39633 11.1113L4.50127 14.231C4.00896 15.9469 3.60604 17.414 3.60588 17.4913C3.60481 17.99 4.35174 18.1884 4.69777 17.7814C4.7834 17.6806 11.532 8.26325 11.8692 7.77401C12.0899 7.45378 12.0274 7.13261 11.7115 6.96328C11.5852 6.89554 11.5053 6.8934 9.09636 6.89329L6.61151 6.89315L7.50669 3.77346ZM1.7405 9.94039C2.24923 9.22323 3.0652 8.08405 4.37252 6.2589C4.67608 5.83509 5.00614 5.3743 5.36499 4.87321C5.78594 4.28541 6.15172 3.77563 6.46866 3.33522C6.45907 3.36869 6.44944 3.40226 6.43978 3.43593L5.11204 8.06307L9.0963 8.06329C9.57777 8.06332 9.9631 8.06343 10.2727 8.0641C9.56829 9.05091 8.43048 10.6407 7.29877 12.2199C6.68353 13.0785 6.07229 13.9308 5.53732 14.6762C5.54757 14.6404 5.55786 14.6045 5.56819 14.5685L6.89574 9.94141L2.9117 9.94119C2.43291 9.94117 2.04919 9.94105 1.7405 9.94039Z" fill="#979797"/>
</svg>
