<svg width="17" height="17" viewBox="0 0 17 17" fill="none" xmlns="http://www.w3.org/2000/svg">
<path fill-rule="evenodd" clip-rule="evenodd" d="M15.6322 0.0427793C16.2613 0.19005 16.8047 0.751001 16.9491 1.40239C16.9937 1.60332 16.9998 2.46354 16.9998 8.49689C16.9998 16.0982 17.0141 15.6002 16.7837 16.0381C16.6313 16.3277 16.3273 16.6412 16.0596 16.7849C15.6271 17.017 15.8576 17.008 10.6785 16.994C7.41568 16.9852 5.94529 16.9695 5.84094 16.9424C5.19642 16.7752 4.88465 16.5087 4.32339 15.6451C3.91269 15.0132 3.69787 14.7343 3.31254 14.3329C2.75931 13.7565 2.29886 13.4114 1.55005 13.012C0.956869 12.6956 0.750454 12.5532 0.52338 12.3039C0.273554 12.0296 0.113604 11.6799 0.0454178 11.2592C0.000747681 10.9836 -0.00572968 10.6652 0.00380135 9.21185C0.0165558 7.27163 0.0124378 7.30831 0.297369 6.59663C0.485384 6.12703 0.731489 5.7489 1.09749 5.3672C1.66569 4.77462 5.55594 0.974096 5.76625 0.806104C6.13849 0.508808 6.75548 0.218255 7.33488 0.0674539C7.52654 0.0175752 8.01082 0.00998567 11.4875 0.0024315C14.7414 -0.00466378 15.4594 0.00232562 15.6322 0.0427793ZM7.36918 1.25473C7.05626 1.35685 6.63532 1.56837 6.43565 1.72376C6.35148 1.78928 5.24331 2.86331 3.97307 4.11053C1.41112 6.62603 1.46907 6.55931 1.2044 7.29669L1.10938 7.56144L1.09892 9.26682C1.08985 10.745 1.09553 10.998 1.1414 11.1656C1.22715 11.4792 1.35419 11.5949 1.9928 11.9408C3.41709 12.7124 4.2935 13.5426 5.25122 15.0274C5.57866 15.535 5.66232 15.6282 5.89122 15.7403L6.05729 15.8216L10.6844 15.8311C13.8299 15.8376 15.3528 15.8289 15.4406 15.8038C15.6103 15.7551 15.7669 15.6114 15.8424 15.4348C15.9009 15.2979 15.9033 15.0141 15.9033 8.49689C15.9033 1.965 15.901 1.69619 15.842 1.56046C15.8083 1.4828 15.7428 1.38216 15.6965 1.33684C15.5053 1.14982 15.6554 1.15593 11.4875 1.165L7.61828 1.1734L7.36918 1.25473ZM8.08325 1.69856C8.20541 1.75624 8.31621 1.88056 8.36334 2.01283C8.38725 2.07983 8.39877 2.93342 8.39877 4.63385V7.15549L11.6785 7.15571C13.9568 7.15581 14.9983 7.16771 15.0895 7.19464C15.5535 7.33153 15.628 8.02172 15.2036 8.25184C15.0796 8.31901 14.9466 8.32039 8.49841 8.32039C2.05026 8.32039 1.91718 8.31901 1.79323 8.25184C1.36884 8.02172 1.4433 7.33153 1.90728 7.19464C1.99749 7.16803 2.86224 7.15581 4.66983 7.15571L7.30106 7.15549L7.31023 4.60508C7.3192 2.10419 7.32069 2.05226 7.38765 1.93115C7.5202 1.69132 7.84093 1.58408 8.08325 1.69856ZM14.669 9.19117C15.0552 9.39344 15.0527 9.99283 14.6647 10.2185C14.5725 10.2721 14.4504 10.2795 13.663 10.2795C12.6517 10.2795 12.6045 10.2702 12.4468 10.0388C12.2644 9.77118 12.34 9.37296 12.6036 9.21228C12.7289 9.13592 12.7617 9.13345 13.6464 9.13366C14.4214 9.13387 14.5762 9.14256 14.669 9.19117Z" fill="#979797"/>
</svg>
