<svg width="8" height="8" viewBox="0 0 8 8" fill="none" xmlns="http://www.w3.org/2000/svg">
<path fill-rule="evenodd" clip-rule="evenodd" d="M0 4C0 1.79086 1.79086 0 4 0C6.20914 0 8 1.79086 8 4C8 6.20914 6.20914 8 4 8C1.79086 8 0 6.20914 0 4ZM6.33301 3.16511C6.47472 3.02279 6.47422 2.79255 6.33191 2.65085L6.07422 2.39428C5.93191 2.25257 5.70167 2.25307 5.55996 2.39538L3.46121 4.50321L2.25354 3.31234C2.11054 3.17133 1.8803 3.17295 1.73929 3.31595L1.48397 3.57487C1.34296 3.71787 1.34457 3.94811 1.48757 4.08912L3.21059 5.78816C3.3531 5.92868 3.58238 5.92763 3.7236 5.78581L6.33301 3.16511Z" fill="#1DB936"/>
</svg>
