<svg width="17" height="13" viewBox="0 0 17 13" fill="none" xmlns="http://www.w3.org/2000/svg">
<path d="M9.4392 8.40798C9.77225 8.18939 10.0769 7.9513 10.4162 7.7709C12.9367 6.44067 16.1687 7.88954 16.571 10.524C16.595 10.6856 16.6083 10.8485 16.611 11.0116C16.6181 11.3529 16.3898 11.5649 16.0132 11.5682C15.5345 11.5682 15.0549 11.5682 14.5762 11.5682H11.4766C11.5015 11.8469 11.5352 12.111 11.5485 12.3808C11.5699 12.796 11.3505 13 10.9002 13H0.638599C0.214955 13 -0.00264025 12.8009 2.41764e-05 12.4174C0.0186752 9.92511 2.05696 7.72865 4.74626 7.30772C6.45504 7.04037 7.99331 7.40198 9.3646 8.3641C9.39835 8.38198 9.43121 8.40311 9.4392 8.40798ZM10.4055 11.9794C10.1062 9.71302 7.86541 8.03906 5.42568 8.23246C2.74083 8.44536 1.27095 10.4525 1.1626 11.9794H10.4055ZM10.2909 9.12063C10.5627 9.57 10.8238 9.99337 11.0743 10.4257C11.0915 10.4684 11.1238 10.5046 11.1662 10.5284C11.2085 10.5523 11.2584 10.5625 11.3079 10.5573C12.6288 10.5541 13.9495 10.5541 15.2699 10.5573C15.3249 10.5573 15.38 10.5516 15.4351 10.5492C15.364 9.88935 14.7485 8.85166 13.4989 8.44617C12.3496 8.07238 11.0219 8.36247 10.2909 9.12063Z" fill="white"/>
<path d="M3.00043 2.88622C3.00096 2.31165 3.1728 1.75029 3.49398 1.27389C3.81517 0.797485 4.2711 0.42769 4.80352 0.211762C5.33593 -0.00416498 5.92063 -0.0564141 6.48289 0.0616942C7.04515 0.179803 7.55943 0.462902 7.95998 0.874808C8.36053 1.28671 8.62916 1.80872 8.73154 2.37409C8.83392 2.93946 8.7654 3.52253 8.53473 4.04876C8.30406 4.57498 7.92173 5.02047 7.43659 5.32827C6.95146 5.63608 6.38557 5.79221 5.81125 5.77673C4.27041 5.74915 2.97286 4.42231 3.00043 2.88622ZM7.76568 2.89271C7.766 2.52112 7.65607 2.1578 7.44979 1.84874C7.24352 1.53968 6.95018 1.29878 6.60692 1.15655C6.26367 1.01431 5.88593 0.97714 5.52153 1.04973C5.15713 1.12232 4.82247 1.30141 4.55991 1.56433C4.29736 1.82725 4.11871 2.16217 4.0466 2.52669C3.97449 2.89121 4.01215 3.26893 4.15482 3.61202C4.29749 3.95512 4.53875 4.24817 4.84805 4.45406C5.15735 4.65995 5.52079 4.76942 5.89235 4.76862C6.13853 4.76851 6.38228 4.7199 6.60968 4.62556C6.83707 4.53122 7.04365 4.393 7.21762 4.21879C7.39159 4.04459 7.52953 3.83781 7.62357 3.61028C7.7176 3.38274 7.7659 3.13891 7.76568 2.89271Z" fill="white"/>
<path d="M10.1111 3.97687C10.1102 3.47567 10.2583 2.98551 10.5366 2.56867C10.8149 2.15183 11.2108 1.82712 11.6741 1.63582C12.1373 1.44452 12.647 1.39525 13.1383 1.49427C13.6297 1.59329 14.0805 1.83614 14.4334 2.19195C14.7864 2.54776 15.0257 3.00048 15.1208 3.49257C15.2159 3.98467 15.1625 4.49393 14.9676 4.95564C14.7726 5.41736 14.4447 5.81069 14.0257 6.08565C13.6066 6.36061 13.1153 6.50479 12.6141 6.49988C11.9488 6.49335 11.313 6.22481 10.8444 5.75249C10.3758 5.28018 10.1124 4.64217 10.1111 3.97687ZM13.9763 3.9721C13.9753 3.70782 13.896 3.44976 13.7483 3.23059C13.6006 3.01143 13.3912 2.84102 13.1466 2.74093C12.902 2.64085 12.6332 2.61559 12.3742 2.66835C12.1153 2.72112 11.8778 2.84953 11.6918 3.03734C11.5059 3.22515 11.3799 3.46391 11.3297 3.72339C11.2795 3.98287 11.3075 4.2514 11.41 4.49498C11.5125 4.73857 11.685 4.94625 11.9057 5.09175C12.1263 5.23724 12.3851 5.31399 12.6494 5.3123C13.0029 5.31003 13.3411 5.16767 13.5898 4.91645C13.8386 4.66522 13.9775 4.32562 13.9763 3.9721Z" fill="white"/>
</svg>
