<svg width="31" height="29" viewBox="0 0 31 29" fill="none" xmlns="http://www.w3.org/2000/svg">
<path fill-rule="evenodd" clip-rule="evenodd" d="M11.625 0C7.70147 0 4.52083 3.24594 4.52083 7.25C4.52083 11.2541 7.70147 14.5 11.625 14.5C15.5485 14.5 18.7292 11.2541 18.7292 7.25C18.7292 3.24594 15.5485 0 11.625 0ZM7.10416 7.25C7.10416 4.70196 9.12821 2.63636 11.625 2.63636C14.1218 2.63636 16.1458 4.70196 16.1458 7.25C16.1458 9.79804 14.1218 11.8636 11.625 11.8636C9.12821 11.8636 7.10416 9.79804 7.10416 7.25Z" fill="#1CA2D7"/>
<path d="M20.0208 0C19.3075 0 18.7292 0.59017 18.7292 1.31818C18.7292 2.04619 19.3075 2.63636 20.0208 2.63636C22.5176 2.63636 24.5417 4.70196 24.5417 7.25C24.5417 9.79804 22.5176 11.8636 20.0208 11.8636C19.3075 11.8636 18.7292 12.4538 18.7292 13.1818C18.7292 13.9098 19.3075 14.5 20.0208 14.5C23.9443 14.5 27.125 11.2541 27.125 7.25C27.125 3.24594 23.9443 0 20.0208 0Z" fill="#1CA2D7"/>
<path d="M24.6497 18.4752C24.9353 17.8081 25.6968 17.5035 26.3505 17.795C29.0849 19.0143 31 21.8001 31 25.0454V27.6818C31 28.4098 30.4217 29 29.7083 29C28.995 29 28.4167 28.4098 28.4167 27.6818V25.0454C28.4167 22.8853 27.1437 21.0257 25.3162 20.2109C24.6625 19.9194 24.3641 19.1423 24.6497 18.4752Z" fill="#1CA2D7"/>
<path d="M7.75 17.1364C3.46979 17.1364 0 20.6774 0 25.0455V27.6818C0 28.4098 0.578299 29 1.29167 29C2.00503 29 2.58333 28.4098 2.58333 27.6818V25.0455C2.58333 22.1334 4.89653 19.7727 7.75 19.7727H15.5C18.3535 19.7727 20.6667 22.1334 20.6667 25.0455V27.6818C20.6667 28.4098 21.245 29 21.9583 29C22.6717 29 23.25 28.4098 23.25 27.6818V25.0455C23.25 20.6774 19.7802 17.1364 15.5 17.1364H7.75Z" fill="#1CA2D7"/>
</svg>
