<svg width="17" height="15" viewBox="0 0 17 15" fill="none" xmlns="http://www.w3.org/2000/svg">
<path d="M5.94358 14.25H0.686418C0.205998 14.25 -0.00538637 14.0347 0.000104145 13.5519C0.0321321 10.7639 2.12767 8.31402 4.89215 7.83119C6.18156 7.59375 7.51322 7.79126 8.67851 8.39276C9.8438 8.99426 10.7769 9.96578 11.3316 11.1551C11.6946 11.9185 11.8885 12.7514 11.8999 13.5968C11.9063 14.0164 11.6748 14.2491 11.2593 14.25H5.94358Z" fill="white"/>
<path d="M2.55016 3.62779C2.56668 1.81267 4.03415 0.352148 5.82835 0.366809C6.25692 0.370118 6.68064 0.45767 7.07532 0.624468C7.47 0.791267 7.8279 1.03405 8.12861 1.33894C8.42931 1.64383 8.66691 2.00488 8.82786 2.40145C8.9888 2.79802 9.06993 3.22236 9.06662 3.65024C9.0633 4.07811 8.97561 4.50115 8.80854 4.89519C8.64147 5.28923 8.3983 5.64656 8.09291 5.94677C7.78752 6.24699 7.4259 6.48421 7.02868 6.64489C6.63147 6.80558 6.20644 6.88658 5.77787 6.88327C4.00478 6.86861 2.53547 5.3861 2.55016 3.62779Z" fill="white"/>
<path d="M10.7666 8.31744C11.3886 7.94236 12.0956 7.7411 12.8171 7.73373C15.0755 7.70186 16.9786 9.59777 16.9999 11.9062C16.9999 12.3132 16.7832 12.5491 16.3854 12.55C15.2949 12.55 14.2052 12.55 13.1155 12.55C13.0267 12.55 12.9699 12.5409 12.9504 12.4262C12.6777 10.8417 11.9832 9.48941 10.819 8.39757C10.806 8.38605 10.7938 8.37357 10.7826 8.36024C10.7759 8.34653 10.7706 8.33219 10.7666 8.31744Z" fill="white"/>
<path d="M15.3001 4.7511C15.3015 5.22761 15.1615 5.69384 14.8979 6.09079C14.6343 6.48773 14.2588 6.79755 13.819 6.98102C13.3792 7.1645 12.8949 7.21339 12.4274 7.12151C11.9598 7.02962 11.53 6.8011 11.1923 6.46485C10.8547 6.1286 10.6244 5.69975 10.5305 5.23256C10.4367 4.76538 10.4836 4.28086 10.6652 3.84032C10.8469 3.39978 11.1551 3.02304 11.551 2.75776C11.9468 2.49247 12.4125 2.35058 12.889 2.35004C13.5269 2.34931 14.1391 2.60173 14.5911 3.05189C15.0432 3.50204 15.2981 4.11316 15.3001 4.7511Z" fill="white"/>
</svg>
