<svg width="17" height="17" viewBox="0 0 17 17" fill="none" xmlns="http://www.w3.org/2000/svg">
<path d="M0 8.5C0 6.81886 0.498515 5.1754 1.43251 3.77758C2.3665 2.37977 3.69402 1.29039 5.24719 0.647049C6.80036 0.00370455 8.50942 -0.164653 10.1583 0.163321C11.8071 0.491296 13.3217 1.30087 14.5104 2.48961C15.6992 3.67836 16.5087 5.19288 16.8367 6.84171C17.1646 8.49055 16.9963 10.1996 16.353 11.7528C15.7096 13.3059 14.6201 14.6335 13.2223 15.5675C11.8245 16.5015 10.1811 17 8.5 17C6.24566 17 4.08364 16.1044 2.48958 14.5104C0.895526 12.9163 0 10.7543 0 8.5ZM1.275 8.5C1.275 9.92897 1.69874 11.3258 2.49263 12.5139C3.28653 13.7021 4.41491 14.6281 5.73511 15.175C7.05531 15.7218 8.50801 15.8649 9.90952 15.5862C11.311 15.3074 12.5984 14.6193 13.6088 13.6088C14.6193 12.5984 15.3074 11.311 15.5862 9.90947C15.8649 8.50796 15.7219 7.05531 15.175 5.73512C14.6282 4.41492 13.7021 3.28652 12.514 2.49262C11.3258 1.69873 9.92896 1.275 8.5 1.275C6.5845 1.27725 4.74809 2.03911 3.39363 3.39357C2.03917 4.74803 1.27725 6.5845 1.275 8.5ZM11.169 11.5855H11.0925L7.88799 9.67301C7.80525 9.62715 7.73445 9.56242 7.68129 9.48416C7.62814 9.40591 7.59412 9.3163 7.58199 9.22248V4.97248C7.5842 4.80409 7.65207 4.64322 7.77115 4.52414C7.89023 4.40506 8.0511 4.33718 8.21949 4.33498C8.37336 4.33566 8.52179 4.39198 8.6374 4.49353C8.753 4.59507 8.82798 4.73501 8.8485 4.8875V8.72952L11.7385 10.4295C11.8693 10.5105 11.9674 10.6349 12.0156 10.7811C12.0638 10.9272 12.059 11.0856 12.002 11.2285L11.9595 11.3049C11.881 11.4384 11.7567 11.5388 11.6096 11.5873C11.4626 11.6358 11.303 11.6291 11.1605 11.5685L11.169 11.5855Z" fill="#979797"/>
</svg>
